<svg width="18" height="17" viewBox="0 0 18 17" fill="none" xmlns="http://www.w3.org/2000/svg">
<path d="M7.9285 -0.00878906H1.14279C0.946359 -0.00878906 0.785645 0.151925 0.785645 0.348354V7.13407C0.785645 7.3305 0.946359 7.49121 1.14279 7.49121H7.9285C8.12493 7.49121 8.28565 7.3305 8.28565 7.13407V0.348354C8.28565 0.151925 8.12493 -0.00878906 7.9285 -0.00878906ZM6.76779 5.97335H2.3035V1.50907H6.76779V5.97335ZM16.8571 -0.00878906H10.0714C9.87493 -0.00878906 9.71422 0.151925 9.71422 0.348354V7.13407C9.71422 7.3305 9.87493 7.49121 10.0714 7.49121H16.8571C17.0535 7.49121 17.2142 7.3305 17.2142 7.13407V0.348354C17.2142 0.151925 17.0535 -0.00878906 16.8571 -0.00878906ZM15.6964 5.97335H11.2321V1.50907H15.6964V5.97335ZM7.9285 8.91978H1.14279C0.946359 8.91978 0.785645 9.0805 0.785645 9.27693V16.0626C0.785645 16.2591 0.946359 16.4198 1.14279 16.4198H7.9285C8.12493 16.4198 8.28565 16.2591 8.28565 16.0626V9.27693C8.28565 9.0805 8.12493 8.91978 7.9285 8.91978ZM6.76779 14.9019H2.3035V10.4376H6.76779V14.9019ZM16.8571 8.91978H10.0714C9.87493 8.91978 9.71422 9.0805 9.71422 9.27693V16.0626C9.71422 16.2591 9.87493 16.4198 10.0714 16.4198H16.8571C17.0535 16.4198 17.2142 16.2591 17.2142 16.0626V9.27693C17.2142 9.0805 17.0535 8.91978 16.8571 8.91978ZM15.6964 14.9019H11.2321V10.4376H15.6964V14.9019Z" fill="#F5EEF9"/>
</svg>
