<svg width="16" height="19" viewBox="0 0 16 19" fill="none" xmlns="http://www.w3.org/2000/svg">
<path d="M9.66683 0.870605H3.00016C2.55814 0.870605 2.13421 1.0462 1.82165 1.35876C1.50909 1.67132 1.3335 2.09524 1.3335 2.53727V15.8706C1.3335 16.3126 1.50909 16.7366 1.82165 17.0491C2.13421 17.3617 2.55814 17.5373 3.00016 17.5373H13.0002C13.4422 17.5373 13.8661 17.3617 14.1787 17.0491C14.4912 16.7366 14.6668 16.3126 14.6668 15.8706V5.87061M9.66683 0.870605L14.6668 5.87061M9.66683 0.870605V5.87061H14.6668M11.3335 10.0373H4.66683M11.3335 13.3706H4.66683M6.3335 6.70394H4.66683" stroke="white" stroke-width="1.5" stroke-linecap="round" stroke-linejoin="round"/>
</svg>
